<?xml version="1.0" encoding="utf-8"?>
<svg xmlns="http://www.w3.org/2000/svg" viewBox="0 0 216.478 215.811" xmlns:bx="https://boxy-svg.com" width="216.478px" height="215.811px"><g transform="matrix(1, 0, 0, 1, -40.860421, -42.360753)" style="pointer-events: none;"><path d="M 158.1 236.265 L 158.1 204.265 C 158.1 177.756 179.59 156.265 206.1 156.265 L 238.1 156.265 C 230.1 180.265 182.1 228.265 158.1 236.265 Z" opacity="0.2" style="fill: rgb(35, 41, 214); stroke: rgb(35, 41, 214); pointer-events: none;"/><path d="M 158.1 236.265 L 110.1 236.265 C 83.59 236.265 62.1 214.775 62.1 188.265 L 62.1 108.265 C 62.1 81.756 83.59 60.265 110.1 60.265 L 190.1 60.265 C 216.61 60.265 238.1 81.756 238.1 108.265 L 238.1 156.265 C 230.1 180.265 182.1 228.265 158.1 236.265 Z" stroke-linecap="round" stroke-linejoin="round" stroke-width="16" style="stroke-width: 16; stroke: rgb(35, 41, 214); pointer-events: none;" fill="none"/><path d="M 158.1 236.265 L 158.1 204.265 C 158.1 177.756 179.59 156.265 206.1 156.265 L 238.1 156.265" stroke-linecap="round" stroke-linejoin="round" stroke-width="16" style="stroke-width: 16; stroke: rgb(35, 41, 214); pointer-events: none;" fill="none"/><path d="M 122.352 149.623 L 118.191 155.195 C 105.709 170.008 84.419 163.202 79.869 142.945 C 75.319 122.688 90.922 104.172 107.953 109.616 C 111.824 110.854 115.354 113.276 118.191 116.643 L 146.985 155.195 C 159.468 170.008 180.758 163.202 185.308 142.945 C 189.857 122.688 174.255 104.172 157.223 109.616 C 153.352 110.854 149.822 113.276 146.985 116.643 L 142.824 122.215" stroke-linecap="round" stroke-linejoin="round" stroke-width="16" style="stroke-width: 16; fill: none; transform-box: fill-box; transform-origin: 50% 50%; stroke: rgba(35, 41, 214, 0.68); pointer-events: none;" transform="matrix(0.729516, -0.683963, 0.683963, 0.729516, 0.000004, 0.000001)"/></g><defs><bx:export><bx:file format="svg"/></bx:export></defs></svg>