<?xml version="1.0" encoding="utf-8"?>
<svg xmlns="http://www.w3.org/2000/svg" viewBox="0 0 413.276 113.743" xmlns:bx="https://boxy-svg.com" width="413.276px" height="113.743px"><g transform="matrix(0.454545, 0, 0, 0.454545, -6.987697, -9.488967)" style="pointer-events: none;"><path d="M 158.1 236.265 L 158.1 204.265 C 158.1 177.756 179.59 156.265 206.1 156.265 L 238.1 156.265 C 230.1 180.265 182.1 228.265 158.1 236.265 Z" opacity="0.2" style="fill: rgb(35, 41, 214); stroke: rgb(35, 41, 214); pointer-events: none;"/><path d="M 158.1 236.265 L 110.1 236.265 C 83.59 236.265 62.1 214.775 62.1 188.265 L 62.1 108.265 C 62.1 81.756 83.59 60.265 110.1 60.265 L 190.1 60.265 C 216.61 60.265 238.1 81.756 238.1 108.265 L 238.1 156.265 C 230.1 180.265 182.1 228.265 158.1 236.265 Z" stroke-linecap="round" stroke-linejoin="round" stroke-width="16" style="stroke-width: 16; stroke: rgb(35, 41, 214); pointer-events: none;" fill="none"/><path d="M 158.1 236.265 L 158.1 204.265 C 158.1 177.756 179.59 156.265 206.1 156.265 L 238.1 156.265" stroke-linecap="round" stroke-linejoin="round" stroke-width="16" style="stroke-width: 16; stroke: rgb(35, 41, 214); pointer-events: none;" fill="none"/><path d="M 122.352 149.623 L 118.191 155.195 C 105.709 170.008 84.419 163.202 79.869 142.945 C 75.319 122.688 90.922 104.172 107.953 109.616 C 111.824 110.854 115.354 113.276 118.191 116.643 L 146.985 155.195 C 159.468 170.008 180.758 163.202 185.308 142.945 C 189.857 122.688 174.255 104.172 157.223 109.616 C 153.352 110.854 149.822 113.276 146.985 116.643 L 142.824 122.215" stroke-linecap="round" stroke-linejoin="round" stroke-width="16" style="stroke-width: 16; fill: none; transform-box: fill-box; transform-origin: 50% 50%; stroke: rgba(35, 41, 214, 0.68); pointer-events: none;" transform="matrix(0.729516, -0.683963, 0.683963, 0.729516, 0.000004, 0.000001)"/><path d="M 308.682 195.171 C 301.579 195.171 295.414 194.069 290.188 191.864 C 284.964 189.66 280.882 186.446 277.943 182.222 C 275.004 177.996 273.412 172.863 273.167 166.822 L 289.454 166.822 C 289.699 170.006 290.678 172.649 292.393 174.75 C 294.107 176.852 296.363 178.434 299.16 179.496 C 301.955 180.558 305.068 181.089 308.497 181.089 C 312.089 181.089 315.252 180.537 317.988 179.434 C 320.723 178.333 322.866 176.802 324.416 174.843 C 325.968 172.883 326.744 170.598 326.744 167.985 C 326.744 165.617 326.05 163.668 324.662 162.138 C 323.273 160.607 321.354 159.31 318.905 158.248 C 316.457 157.188 313.58 156.249 310.272 155.432 L 299.926 152.739 C 292.413 150.82 286.494 147.891 282.167 143.953 C 277.841 140.013 275.677 134.757 275.677 128.185 C 275.677 122.797 277.126 118.092 280.024 114.072 C 282.923 110.051 286.892 106.917 291.933 104.672 C 296.975 102.428 302.681 101.306 309.049 101.306 C 315.539 101.306 321.233 102.428 326.132 104.672 C 331.029 106.917 334.866 110.02 337.642 113.98 C 340.419 117.94 341.868 122.491 341.99 127.633 L 326.009 127.633 C 325.601 123.716 323.876 120.685 320.834 118.54 C 317.794 116.398 313.804 115.326 308.864 115.326 C 305.435 115.326 302.486 115.837 300.016 116.857 C 297.546 117.878 295.658 119.286 294.353 121.081 C 293.046 122.878 292.393 124.92 292.393 127.206 C 292.393 129.736 293.158 131.808 294.69 133.421 C 296.221 135.033 298.18 136.329 300.568 137.309 C 302.956 138.288 305.395 139.105 307.885 139.757 L 316.395 141.9 C 319.824 142.717 323.13 143.809 326.315 145.176 C 329.499 146.544 332.367 148.259 334.919 150.319 C 337.469 152.382 339.49 154.882 340.98 157.821 C 342.47 160.759 343.215 164.208 343.215 168.168 C 343.215 173.474 341.847 178.159 339.112 182.222 C 336.377 186.283 332.437 189.457 327.294 191.743 C 322.151 194.028 315.947 195.171 308.682 195.171 Z M 386.544 125.308 L 386.544 137.799 L 347.296 137.799 L 347.296 125.308 L 386.544 125.308 Z M 356.908 109.019 L 373.012 109.019 L 373.012 173.188 C 373.012 175.883 373.604 177.873 374.787 179.159 C 375.971 180.446 377.849 181.089 380.421 181.089 C 381.115 181.089 381.89 181.027 382.747 180.904 C 383.605 180.782 384.381 180.639 385.074 180.475 L 387.829 193.09 C 386.114 193.621 384.38 194.019 382.626 194.284 C 380.87 194.548 379.115 194.68 377.359 194.68 C 370.991 194.68 365.99 192.997 362.357 189.629 C 358.724 186.262 356.908 181.659 356.908 175.822 L 356.908 109.019 Z M 395.436 193.763 L 395.436 125.308 L 411.541 125.308 L 411.541 193.763 L 395.436 193.763 Z M 403.519 115.694 C 400.947 115.694 398.742 114.836 396.906 113.122 C 395.068 111.407 394.149 109.346 394.149 106.938 C 394.149 104.488 395.068 102.406 396.906 100.692 C 398.742 98.977 400.947 98.12 403.519 98.12 C 406.049 98.12 408.233 98.977 410.071 100.692 C 411.907 102.406 412.825 104.468 412.825 106.876 C 412.825 109.325 411.907 111.407 410.071 113.122 C 408.233 114.836 406.049 115.694 403.519 115.694 Z M 453.233 195.109 C 446.416 195.109 440.558 193.61 435.659 190.61 C 430.76 187.609 427.005 183.456 424.393 178.149 C 421.781 172.843 420.475 166.74 420.475 159.841 C 420.475 152.861 421.801 146.718 424.455 141.412 C 427.108 136.104 430.884 131.95 435.782 128.951 C 440.68 125.95 446.455 124.45 453.11 124.45 C 458.702 124.45 463.641 125.47 467.927 127.512 C 472.214 129.552 475.632 132.42 478.183 136.114 C 480.735 139.809 482.194 144.126 482.561 149.065 L 467.132 149.065 C 466.723 146.861 465.927 144.881 464.743 143.125 C 463.56 141.37 462.019 139.982 460.121 138.961 C 458.223 137.942 455.967 137.432 453.354 137.432 C 450.048 137.432 447.16 138.319 444.69 140.094 C 442.22 141.87 440.292 144.411 438.904 147.717 C 437.517 151.024 436.823 154.984 436.823 159.597 C 436.823 164.251 437.496 168.261 438.843 171.629 C 440.19 174.996 442.109 177.588 444.598 179.403 C 447.088 181.221 450.007 182.129 453.354 182.129 C 456.906 182.129 459.917 181.088 462.387 179.005 C 464.855 176.924 466.437 174.046 467.132 170.372 L 482.561 170.372 C 482.194 175.23 480.766 179.516 478.275 183.231 C 475.785 186.947 472.417 189.855 468.173 191.957 C 463.927 194.058 458.947 195.109 453.233 195.109 Z M 505.94 172.333 L 505.879 152.799 L 508.512 152.799 L 533.066 125.308 L 551.925 125.308 L 521.677 159.045 L 518.309 159.045 L 505.94 172.333 Z M 491.247 193.763 L 491.247 102.529 L 507.348 102.529 L 507.348 193.763 L 491.247 193.763 Z M 534.169 193.763 L 511.88 162.657 L 522.779 151.27 L 553.456 193.763 L 534.169 193.763 Z M 585.352 195.109 C 578.494 195.109 572.575 193.671 567.595 190.793 C 562.615 187.915 558.787 183.844 556.114 178.578 C 553.44 173.312 552.103 167.107 552.103 159.964 C 552.103 152.902 553.43 146.708 556.083 141.381 C 558.736 136.054 562.471 131.9 567.287 128.92 C 572.105 125.94 577.78 124.45 584.311 124.45 C 588.516 124.45 592.506 125.124 596.281 126.471 C 600.056 127.818 603.403 129.899 606.322 132.715 C 609.241 135.533 611.538 139.115 613.212 143.462 C 614.886 147.809 615.723 152.983 615.723 158.983 L 615.723 164.006 L 559.634 164.006 L 559.634 153.166 L 607.701 153.166 L 600.169 156.352 C 600.169 152.474 599.577 149.096 598.393 146.216 C 597.21 143.339 595.455 141.084 593.129 139.451 C 590.801 137.819 587.902 137.003 584.432 137.003 C 580.963 137.003 578.004 137.819 575.555 139.451 C 573.106 141.084 571.248 143.278 569.982 146.034 C 568.717 148.79 568.084 151.862 568.084 155.25 L 568.084 162.78 C 568.084 166.944 568.808 170.506 570.257 173.466 C 571.707 176.424 573.748 178.679 576.382 180.231 C 579.015 181.782 582.086 182.558 585.596 182.558 C 587.882 182.558 589.975 182.231 591.872 181.577 C 593.77 180.924 595.403 179.935 596.772 178.609 C 598.139 177.282 599.19 175.639 599.924 173.679 L 614.988 175.454 C 614.008 179.414 612.202 182.874 609.569 185.834 C 606.935 188.794 603.567 191.08 599.465 192.692 C 595.362 194.303 590.658 195.109 585.352 195.109 Z M 624.413 193.763 L 624.413 125.308 L 640.026 125.308 L 640.026 136.818 L 640.761 136.818 C 641.986 132.818 644.128 129.747 647.189 127.602 C 650.25 125.459 653.74 124.388 657.659 124.388 C 658.517 124.388 659.507 124.429 660.629 124.511 C 661.753 124.593 662.682 124.695 663.417 124.817 L 663.417 139.634 C 662.721 139.389 661.639 139.185 660.169 139.022 C 658.7 138.86 657.292 138.778 655.945 138.778 C 652.965 138.778 650.312 139.411 647.986 140.677 C 645.658 141.941 643.831 143.675 642.506 145.88 C 641.178 148.084 640.515 150.656 640.515 153.595 L 640.515 193.763 L 624.413 193.763 Z M 687.929 195.171 C 683.561 195.171 679.642 194.386 676.172 192.815 C 672.702 191.242 669.967 188.926 667.966 185.865 C 665.967 182.802 664.968 179.027 664.968 174.537 C 664.968 170.7 665.682 167.516 667.11 164.985 C 668.539 162.453 670.488 160.433 672.958 158.924 C 675.426 157.413 678.212 156.259 681.316 155.463 C 684.418 154.667 687.622 154.106 690.928 153.78 C 694.97 153.331 698.235 152.943 700.724 152.616 C 703.215 152.289 705.021 151.758 706.145 151.023 C 707.267 150.289 707.828 149.146 707.828 147.596 L 707.828 147.288 C 707.828 143.982 706.848 141.411 704.889 139.575 C 702.929 137.737 700.072 136.818 696.318 136.818 C 692.358 136.818 689.224 137.675 686.917 139.39 C 684.611 141.104 683.05 143.125 682.233 145.453 L 667.231 143.308 C 668.415 139.146 670.374 135.666 673.11 132.869 C 675.845 130.074 679.182 127.971 683.122 126.562 C 687.061 125.154 691.419 124.45 696.194 124.45 C 699.459 124.45 702.725 124.827 705.991 125.583 C 709.257 126.338 712.257 127.614 714.991 129.411 C 717.727 131.206 719.91 133.614 721.543 136.635 C 723.177 139.655 723.994 143.431 723.994 147.963 L 723.994 193.763 L 708.501 193.763 L 708.501 184.334 L 708.011 184.334 C 707.031 186.211 705.654 187.976 703.879 189.629 C 702.103 191.283 699.898 192.62 697.266 193.64 C 694.633 194.661 691.521 195.171 687.929 195.171 Z M 692.03 183.293 C 695.296 183.293 698.113 182.65 700.48 181.364 C 702.847 180.077 704.684 178.363 705.991 176.22 C 707.298 174.077 707.951 171.74 707.951 169.209 L 707.951 161.187 C 707.42 161.597 706.563 161.974 705.379 162.32 C 704.196 162.668 702.849 162.985 701.338 163.271 C 699.827 163.555 698.347 163.8 696.898 164.006 C 695.449 164.21 694.194 164.372 693.132 164.494 C 690.724 164.821 688.571 165.362 686.673 166.118 C 684.775 166.873 683.274 167.903 682.172 169.209 C 681.07 170.515 680.519 172.209 680.519 174.291 C 680.519 177.271 681.601 179.516 683.764 181.027 C 685.928 182.538 688.683 183.293 692.03 183.293 Z M 770.035 125.308 L 770.035 137.799 L 730.787 137.799 L 730.787 125.308 L 770.035 125.308 Z M 740.399 109.019 L 756.503 109.019 L 756.503 173.188 C 756.503 175.883 757.095 177.873 758.278 179.159 C 759.462 180.446 761.34 181.089 763.913 181.089 C 764.606 181.089 765.381 181.027 766.238 180.904 C 767.096 180.782 767.872 180.639 768.566 180.475 L 771.32 193.09 C 769.607 193.621 767.873 194.019 766.117 194.284 C 764.361 194.548 762.606 194.68 760.85 194.68 C 754.482 194.68 749.481 192.997 745.848 189.629 C 742.215 186.262 740.399 181.659 740.399 175.822 L 740.399 109.019 Z M 808.058 195.109 C 801.364 195.109 795.568 193.64 790.669 190.7 C 785.77 187.761 781.984 183.638 779.31 178.332 C 776.637 173.026 775.3 166.862 775.3 159.841 C 775.3 152.779 776.637 146.585 779.31 141.258 C 781.984 135.931 785.77 131.798 790.669 128.858 C 795.568 125.919 801.364 124.45 808.058 124.45 C 814.753 124.45 820.55 125.919 825.449 128.858 C 830.346 131.798 834.142 135.931 836.836 141.258 C 839.53 146.585 840.877 152.779 840.877 159.841 C 840.877 166.862 839.53 173.026 836.836 178.332 C 834.142 183.638 830.346 187.761 825.449 190.7 C 820.55 193.64 814.753 195.109 808.058 195.109 Z M 808.058 182.129 C 811.773 182.129 814.835 181.139 817.243 179.159 C 819.651 177.179 821.457 174.495 822.661 171.107 C 823.866 167.719 824.468 163.964 824.468 159.841 C 824.468 155.636 823.866 151.84 822.661 148.452 C 821.457 145.064 819.651 142.38 817.243 140.4 C 814.835 138.421 811.773 137.432 808.058 137.432 C 804.425 137.432 801.384 138.421 798.934 140.4 C 796.485 142.38 794.658 145.064 793.454 148.452 C 792.25 151.84 791.648 155.636 791.648 159.841 C 791.648 163.964 792.25 167.719 793.454 171.107 C 794.658 174.495 796.485 177.179 798.934 179.159 C 801.384 181.139 804.425 182.129 808.058 182.129 Z M 849.763 193.763 L 849.763 125.308 L 865.379 125.308 L 865.379 136.818 L 866.114 136.818 C 867.338 132.818 869.481 129.747 872.542 127.602 C 875.603 125.459 879.093 124.388 883.012 124.388 C 883.87 124.388 884.86 124.429 885.982 124.511 C 887.104 124.593 888.032 124.695 888.767 124.817 L 888.767 139.634 C 888.073 139.389 886.992 139.185 885.522 139.022 C 884.053 138.86 882.645 138.778 881.298 138.778 C 878.318 138.778 875.665 139.411 873.339 140.677 C 871.011 141.941 869.184 143.675 867.858 145.88 C 866.531 148.084 865.867 150.656 865.867 153.595 L 865.867 193.763 L 849.763 193.763 Z" style="fill: rgb(51, 51, 51); text-wrap-mode: nowrap; pointer-events: none;"/><path d="M 520.694 224.572 C 521.669 223.931 522.7 223.471 523.787 223.192 C 524.874 222.914 526.03 222.774 527.256 222.774 C 531.687 222.774 533.902 224.85 533.902 229.003 L 533.902 237.864 C 533.902 239.202 534.432 239.871 535.491 239.871 C 535.965 239.871 536.383 239.787 536.745 239.62 L 536.787 241.543 C 536.034 241.961 535.226 242.17 534.362 242.17 C 532.161 242.17 531.032 240.916 530.976 238.408 L 530.976 238.324 C 530.391 239.327 529.562 240.219 528.488 240.999 C 527.416 241.779 526.128 242.17 524.623 242.17 C 523.397 242.17 522.149 241.793 520.881 241.041 C 519.613 240.289 518.98 238.923 518.98 236.945 C 518.98 234.604 519.906 233.064 521.758 232.325 C 523.612 231.587 525.584 231.218 527.674 231.218 C 528.232 231.218 528.795 231.232 529.366 231.26 C 529.938 231.288 530.475 231.329 530.976 231.385 L 530.976 229.713 C 530.976 228.376 530.69 227.289 530.118 226.453 C 529.548 225.617 528.427 225.199 526.755 225.199 C 525.389 225.199 524.191 225.45 523.16 225.951 L 522.449 229.17 L 520.025 228.877 L 520.694 224.572 Z M 530.976 234.771 L 530.976 233.35 C 530.447 233.322 529.89 233.28 529.304 233.224 C 528.719 233.169 528.12 233.141 527.507 233.141 C 526.114 233.141 524.852 233.356 523.723 233.788 C 522.595 234.22 522.031 235.161 522.031 236.61 C 522.031 237.808 522.407 238.63 523.16 239.076 C 523.912 239.522 524.692 239.745 525.501 239.745 C 526.782 239.745 527.987 239.299 529.115 238.408 C 530.245 237.516 530.865 236.304 530.976 234.771 Z M 568.341 241.752 L 548.737 241.752 L 548.737 239.076 L 552.165 239.076 L 552.165 217.257 L 548.737 217.257 L 548.737 214.582 L 559.772 214.582 L 559.772 217.257 L 555.216 217.257 L 555.216 239.076 L 565.624 239.076 L 566.46 232.848 L 569.177 233.057 L 568.341 241.752 Z M 573.139 224.572 C 574.115 223.931 575.146 223.471 576.233 223.192 C 577.319 222.914 578.476 222.774 579.702 222.774 C 584.133 222.774 586.348 224.85 586.348 229.003 L 586.348 237.864 C 586.348 239.202 586.878 239.871 587.937 239.871 C 588.41 239.871 588.828 239.787 589.191 239.62 L 589.232 241.543 C 588.48 241.961 587.672 242.17 586.808 242.17 C 584.607 242.17 583.478 240.916 583.422 238.408 L 583.422 238.324 C 582.837 239.327 582.008 240.219 580.934 240.999 C 579.862 241.779 578.573 242.17 577.069 242.17 C 575.843 242.17 574.595 241.793 573.326 241.041 C 572.059 240.289 571.426 238.923 571.426 236.945 C 571.426 234.604 572.352 233.064 574.204 232.325 C 576.058 231.587 578.03 231.218 580.12 231.218 C 580.677 231.218 581.241 231.232 581.812 231.26 C 582.384 231.288 582.921 231.329 583.422 231.385 L 583.422 229.713 C 583.422 228.376 583.136 227.289 582.564 226.453 C 581.994 225.617 580.872 225.199 579.2 225.199 C 577.835 225.199 576.637 225.45 575.606 225.951 L 574.895 229.17 L 572.471 228.877 L 573.139 224.572 Z M 583.422 234.771 L 583.422 233.35 C 582.893 233.322 582.335 233.28 581.75 233.224 C 581.165 233.169 580.566 233.141 579.953 233.141 C 578.56 233.141 577.298 233.356 576.169 233.788 C 575.041 234.22 574.477 235.161 574.477 236.61 C 574.477 237.808 574.853 238.63 575.606 239.076 C 576.358 239.522 577.138 239.745 577.946 239.745 C 579.228 239.745 580.433 239.299 581.561 238.408 C 582.69 237.516 583.311 236.304 583.422 234.771 Z M 608.117 236.401 C 607.866 237.99 607.072 239.348 605.735 240.476 C 604.397 241.605 602.586 242.17 600.301 242.17 C 597.681 242.17 595.563 241.347 593.947 239.703 C 592.331 238.059 591.523 235.732 591.523 232.723 C 591.523 229.825 592.289 227.442 593.822 225.575 C 595.354 223.708 597.43 222.774 600.05 222.774 C 602.614 222.774 604.564 223.582 605.902 225.199 C 607.239 226.815 607.922 228.724 607.95 230.925 C 607.95 231.65 607.866 232.388 607.699 233.141 L 594.616 233.141 C 594.783 237.488 596.748 239.662 600.51 239.662 C 601.987 239.662 603.143 239.313 603.979 238.617 C 604.815 237.92 605.372 237 605.651 235.858 L 608.117 236.401 Z M 604.857 230.967 C 604.996 229.574 604.668 228.264 603.873 227.038 C 603.08 225.812 601.778 225.199 599.966 225.199 C 598.239 225.199 596.971 225.77 596.162 226.913 C 595.354 228.055 594.853 229.407 594.658 230.967 L 604.857 230.967 Z M 621.458 222.816 C 622.796 222.816 623.855 223.137 624.635 223.778 L 625.345 228.459 L 622.963 228.752 L 622.252 225.575 C 621.779 225.408 621.305 225.324 620.831 225.324 C 619.744 225.324 618.839 225.777 618.114 226.682 C 617.39 227.588 617.027 228.766 617.027 230.215 L 617.027 239.369 L 621.333 239.369 L 621.333 241.752 L 610.841 241.752 L 610.841 239.369 L 614.101 239.369 L 614.101 225.533 L 610.757 225.533 L 610.757 223.151 L 616.86 223.151 L 616.86 226.495 C 617.222 225.463 617.814 224.592 618.635 223.881 C 619.458 223.171 620.399 222.816 621.458 222.816 Z M 645.335 236.401 C 645.084 237.99 644.29 239.348 642.952 240.476 C 641.615 241.605 639.803 242.17 637.518 242.17 C 634.899 242.17 632.781 241.347 631.164 239.703 C 629.548 238.059 628.74 235.732 628.74 232.723 C 628.74 229.825 629.506 227.442 631.039 225.575 C 632.572 223.708 634.648 222.774 637.267 222.774 C 639.831 222.774 641.782 223.582 643.119 225.199 C 644.457 226.815 645.14 228.724 645.168 230.925 C 645.168 231.65 645.084 232.388 644.917 233.141 L 631.833 233.141 C 632 237.488 633.965 239.662 637.727 239.662 C 639.204 239.662 640.361 239.313 641.197 238.617 C 642.033 237.92 642.59 237 642.869 235.858 L 645.335 236.401 Z M 642.074 230.967 C 642.214 229.574 641.887 228.264 641.093 227.038 C 640.298 225.812 638.995 225.199 637.184 225.199 C 635.456 225.199 634.188 225.77 633.38 226.913 C 632.572 228.055 632.07 229.407 631.875 230.967 L 642.074 230.967 Z M 658.654 222.816 C 659.991 222.816 661.05 223.137 661.83 223.778 L 662.541 228.459 L 660.158 228.752 L 659.448 225.575 C 658.974 225.408 658.5 225.324 658.027 225.324 C 656.94 225.324 656.034 225.777 655.31 226.682 C 654.585 227.588 654.223 228.766 654.223 230.215 L 654.223 239.369 L 658.528 239.369 L 658.528 241.752 L 648.036 241.752 L 648.036 239.369 L 651.297 239.369 L 651.297 225.533 L 647.953 225.533 L 647.953 223.151 L 654.056 223.151 L 654.056 226.495 C 654.418 225.463 655.01 224.592 655.831 223.881 C 656.654 223.171 657.595 222.816 658.654 222.816 Z M 674.333 241.752 L 664.886 241.752 L 664.886 239.369 L 668.147 239.369 L 668.147 215.376 L 664.844 215.376 L 664.844 212.993 L 671.073 212.993 L 671.073 239.369 L 674.333 239.369 L 674.333 241.752 Z M 678.557 224.572 C 679.532 223.931 680.563 223.471 681.65 223.192 C 682.737 222.914 683.893 222.774 685.12 222.774 C 689.55 222.774 691.766 224.85 691.766 229.003 L 691.766 237.864 C 691.766 239.202 692.295 239.871 693.354 239.871 C 693.828 239.871 694.246 239.787 694.608 239.62 L 694.65 241.543 C 693.898 241.961 693.089 242.17 692.226 242.17 C 690.024 242.17 688.895 240.916 688.84 238.408 L 688.84 238.324 C 688.255 239.327 687.426 240.219 686.354 240.999 C 685.28 241.779 683.991 242.17 682.486 242.17 C 681.26 242.17 680.013 241.793 678.746 241.041 C 677.477 240.289 676.843 238.923 676.843 236.945 C 676.843 234.604 677.77 233.064 679.624 232.325 C 681.476 231.587 683.448 231.218 685.538 231.218 C 686.095 231.218 686.66 231.232 687.232 231.26 C 687.802 231.288 688.338 231.329 688.84 231.385 L 688.84 229.713 C 688.84 228.376 688.554 227.289 687.984 226.453 C 687.412 225.617 686.29 225.199 684.618 225.199 C 683.252 225.199 682.054 225.45 681.023 225.951 L 680.313 229.17 L 677.888 228.877 L 678.557 224.572 Z M 688.84 234.771 L 688.84 233.35 C 688.31 233.322 687.753 233.28 687.168 233.224 C 686.583 233.169 685.983 233.141 685.37 233.141 C 683.977 233.141 682.716 233.356 681.589 233.788 C 680.459 234.22 679.895 235.161 679.895 236.61 C 679.895 237.808 680.271 238.63 681.023 239.076 C 681.776 239.522 682.556 239.745 683.364 239.745 C 684.646 239.745 685.851 239.299 686.981 238.408 C 688.109 237.516 688.728 236.304 688.84 234.771 Z M 716.085 231.97 C 716.085 233.614 715.806 235.217 715.249 236.777 C 714.691 238.338 713.8 239.626 712.573 240.643 C 711.347 241.661 709.759 242.17 707.808 242.17 C 704.687 242.17 702.513 240.999 701.287 238.658 L 700.869 241.752 L 697.943 241.752 C 698.055 240.943 698.18 240.066 698.32 239.118 C 698.459 238.171 698.529 237.237 698.529 236.318 L 698.529 215.376 L 695.31 215.376 L 695.31 212.993 L 701.455 212.993 L 701.455 226.996 C 702.012 225.854 702.813 224.864 703.857 224.028 C 704.903 223.192 706.317 222.774 708.101 222.774 C 710.414 222.774 712.323 223.569 713.827 225.157 C 715.332 226.745 716.085 229.016 716.085 231.97 Z M 712.991 232.263 C 712.991 229.95 712.448 228.208 711.361 227.038 C 710.274 225.868 708.951 225.282 707.39 225.282 C 705.607 225.282 704.185 225.937 703.127 227.247 C 702.068 228.557 701.51 229.894 701.455 231.26 L 701.455 234.06 C 701.455 235.621 702.005 236.945 703.105 238.031 C 704.206 239.118 705.565 239.662 707.181 239.662 C 709.215 239.662 710.692 238.909 711.612 237.404 C 712.532 235.9 712.991 234.186 712.991 232.263 Z M 734.367 236.359 C 734.367 238.171 733.607 239.592 732.087 240.623 C 730.569 241.654 728.696 242.17 726.466 242.17 C 725.157 242.17 723.854 241.995 722.557 241.646 C 721.262 241.298 720.21 240.86 719.402 240.33 L 719.987 236.109 L 722.328 236.359 L 722.203 238.826 C 723.485 239.439 724.864 239.745 726.341 239.745 C 727.651 239.745 728.814 239.487 729.83 238.971 C 730.848 238.456 731.357 237.669 731.357 236.61 C 731.357 235.579 730.967 234.855 730.187 234.437 C 729.406 234.019 728.438 233.712 727.28 233.517 C 726.125 233.322 724.962 233.085 723.791 232.806 C 722.621 232.528 721.645 232.047 720.865 231.363 C 720.085 230.681 719.695 229.616 719.695 228.167 C 719.695 226.188 720.419 224.795 721.868 223.987 C 723.317 223.178 724.892 222.774 726.592 222.774 C 727.874 222.774 729.079 222.942 730.206 223.276 C 731.336 223.61 732.291 224.014 733.071 224.488 L 733.531 228.835 L 731.106 229.128 L 730.646 226.118 C 729.476 225.505 728.208 225.199 726.843 225.199 C 725.672 225.199 724.711 225.422 723.958 225.868 C 723.206 226.313 722.83 227.01 722.83 227.958 C 722.83 228.933 723.22 229.622 724 230.026 C 724.78 230.43 725.742 230.723 726.884 230.903 C 728.027 231.085 729.169 231.315 730.312 231.594 C 731.455 231.873 732.416 232.367 733.196 233.077 C 733.976 233.788 734.367 234.882 734.367 236.359 Z M 766.883 231.929 C 766.883 233.573 766.597 235.182 766.025 236.755 C 765.454 238.331 764.548 239.626 763.308 240.643 C 762.068 241.661 760.431 242.17 758.397 242.17 C 755.583 242.17 753.534 241.125 752.253 239.035 L 752.253 248.272 L 756.558 248.272 L 756.558 250.655 L 746.024 250.655 L 746.024 248.272 L 749.327 248.272 L 749.327 225.533 L 745.983 225.533 L 745.983 223.151 L 752.253 223.151 L 752.253 227.038 C 752.81 225.923 753.618 224.934 754.677 224.07 C 755.736 223.206 757.129 222.774 758.857 222.774 C 761.254 222.774 763.19 223.582 764.667 225.199 C 766.144 226.815 766.883 229.058 766.883 231.929 Z M 763.789 232.179 C 763.789 229.95 763.246 228.243 762.159 227.058 C 761.072 225.874 759.721 225.282 758.105 225.282 C 756.433 225.282 755.053 225.944 753.966 227.267 C 752.88 228.591 752.308 229.964 752.253 231.385 L 752.253 234.144 C 752.253 235.704 752.796 237.014 753.883 238.073 C 754.97 239.132 756.279 239.662 757.812 239.662 C 759.902 239.662 761.421 238.909 762.368 237.404 C 763.316 235.9 763.789 234.158 763.789 232.179 Z M 780.329 222.816 C 781.667 222.816 782.726 223.137 783.506 223.778 L 784.216 228.459 L 781.834 228.752 L 781.123 225.575 C 780.649 225.408 780.176 225.324 779.702 225.324 C 778.615 225.324 777.71 225.777 776.985 226.682 C 776.26 227.588 775.898 228.766 775.898 230.215 L 775.898 239.369 L 780.204 239.369 L 780.204 241.752 L 769.712 241.752 L 769.712 239.369 L 772.972 239.369 L 772.972 225.533 L 769.628 225.533 L 769.628 223.151 L 775.731 223.151 L 775.731 226.495 C 776.093 225.463 776.686 224.592 777.509 223.881 C 778.33 223.171 779.27 222.816 780.329 222.816 Z M 805.922 232.43 C 805.922 235.245 805.086 237.572 803.414 239.411 C 801.742 241.25 799.471 242.17 796.6 242.17 C 793.786 242.17 791.577 241.278 789.974 239.494 C 788.372 237.711 787.571 235.412 787.571 232.597 C 787.571 229.894 788.352 227.574 789.912 225.637 C 791.473 223.701 793.758 222.733 796.767 222.733 C 799.805 222.733 802.09 223.687 803.623 225.595 C 805.155 227.504 805.922 229.783 805.922 232.43 Z M 802.828 232.388 C 802.828 230.27 802.292 228.549 801.218 227.225 C 800.146 225.902 798.635 225.241 796.684 225.241 C 794.733 225.241 793.235 225.923 792.189 227.289 C 791.145 228.654 790.623 230.368 790.623 232.43 C 790.623 234.464 791.138 236.178 792.169 237.572 C 793.201 238.965 794.705 239.662 796.684 239.662 C 798.662 239.662 800.181 238.971 801.24 237.591 C 802.299 236.213 802.828 234.478 802.828 232.388 Z M 829.829 241.752 L 823.684 241.752 L 823.684 237.99 C 823.071 239.104 822.235 240.08 821.176 240.916 C 820.118 241.752 818.738 242.17 817.038 242.17 C 814.642 242.17 812.712 241.354 811.248 239.723 C 809.786 238.094 809.054 235.83 809.054 232.932 C 809.054 230.452 809.695 228.139 810.977 225.993 C 812.259 223.847 814.419 222.774 817.456 222.774 C 820.354 222.774 822.43 223.903 823.684 226.16 L 823.684 215.376 L 819.17 215.376 L 819.17 212.993 L 826.61 212.993 L 826.61 239.369 L 829.829 239.369 L 829.829 241.752 Z M 823.684 233.517 L 823.684 230.549 C 823.629 228.989 823.057 227.721 821.971 226.745 C 820.884 225.77 819.602 225.282 818.125 225.282 C 816.063 225.282 814.551 226.035 813.589 227.54 C 812.628 229.044 812.148 230.772 812.148 232.723 C 812.148 235.008 812.684 236.736 813.756 237.906 C 814.829 239.076 816.174 239.662 817.791 239.662 C 819.463 239.662 820.849 238.985 821.949 237.633 C 823.05 236.282 823.629 234.91 823.684 233.517 Z M 853.222 241.752 L 846.952 241.752 L 846.952 238.24 C 846.366 239.411 845.509 240.358 844.38 241.083 C 843.252 241.807 841.95 242.17 840.473 242.17 C 838.661 242.17 837.135 241.605 835.894 240.476 C 834.655 239.348 834.035 237.544 834.035 235.064 L 834.035 225.533 L 830.775 225.533 L 830.775 223.151 L 836.961 223.151 L 836.961 234.228 C 836.961 236.234 837.379 237.641 838.215 238.449 C 839.051 239.257 840.124 239.662 841.434 239.662 C 843.022 239.662 844.325 239.062 845.341 237.864 C 846.359 236.666 846.896 235.398 846.952 234.06 L 846.952 225.533 L 843.064 225.533 L 843.064 223.151 L 849.878 223.151 L 849.878 239.369 L 853.222 239.369 L 853.222 241.752 Z M 871.748 235.482 C 871.497 237.098 870.765 238.617 869.552 240.038 C 868.341 241.459 866.453 242.17 863.89 242.17 C 861.326 242.17 859.278 241.34 857.745 239.681 C 856.212 238.024 855.446 235.704 855.446 232.723 C 855.446 230.159 856.17 227.86 857.619 225.826 C 859.069 223.791 861.242 222.774 864.14 222.774 C 865.366 222.774 866.495 222.914 867.526 223.192 C 868.557 223.471 869.546 223.973 870.494 224.697 L 871.205 229.17 L 868.78 229.462 L 868.07 226.327 C 866.955 225.631 865.631 225.282 864.099 225.282 C 862.12 225.282 860.699 225.993 859.835 227.414 C 858.971 228.835 858.539 230.549 858.539 232.556 C 858.539 234.785 859.027 236.527 860.002 237.781 C 860.977 239.035 862.385 239.662 864.224 239.662 C 867.011 239.662 868.683 238.087 869.24 234.938 L 871.748 235.482 Z M 888.466 236.736 C 887.964 240.358 886 242.17 882.572 242.17 C 880.705 242.17 879.276 241.64 878.286 240.581 C 877.298 239.522 876.804 238.087 876.804 236.276 L 876.804 225.491 L 873.794 225.491 L 873.794 223.151 L 876.804 223.151 L 876.804 217.173 L 879.73 217.173 L 879.73 223.151 L 887.003 223.151 L 887.003 225.491 L 879.73 225.491 L 879.73 235.9 C 879.73 237.014 879.973 237.913 880.46 238.595 C 880.948 239.278 881.75 239.62 882.865 239.62 C 883.589 239.62 884.264 239.397 884.891 238.951 C 885.518 238.505 885.972 237.53 886.25 236.025 L 888.466 236.736 Z" style="fill: rgb(35, 41, 214); text-wrap-mode: nowrap; pointer-events: none;"/></g><defs><bx:export><bx:file format="svg"/></bx:export></defs></svg>